<?xml version="1.0" encoding="UTF-8"?>
<svg version="1.1" xmlns="http://www.w3.org/2000/svg" viewBox="0 0 160 240">
    <g id="logo" fill="#466BB0">
        <path d="M33,146 C52.1783811,141.69531 140.738281,141.69531 150,146 C156.174479,148.869794 129.001302,155.53646 68.4804688,166 C32.0412355,155.53646 20.2144126,148.869794 33,146 Z" id="Path"></path>
        <path d="M0.637832595,205.000088 C5.77464362,211.521179 21.0036375,194.564277 46.3248142,154.129381 C77.7097809,32.8692793 87.3736483,-16.8404852 75.3164164,5.00008783 C57.2305687,37.7609473 -7.06738394,195.218451 0.637832595,205.000088 Z" id="Path"></path>
        <path d="M126.141229,156.628906 C160.932493,208.717448 176.072698,223.882678 171.561843,202.124595 C164.795561,169.487472 100.964844,13.6132812 81.5618429,2.12459537 C68.626509,-5.53452854 83.4863045,45.9669084 126.141229,156.628906 Z" id="Path"></path>
    </g>    
</svg>