<?xml version="1.0" encoding="utf-8"?>
<svg version="1.1" xmlns="http://www.w3.org/2000/svg" viewBox="0 0 160 240">
  <g id="logo" fill="#466BB0">
    <path d="M30.6843263,165.423896 C48.4898475,160.536357 130.7103,160.536357 139.309031,165.423896 C145.041518,168.682256 119.813498,176.25158 63.624971,188.131868 C29.7941937,176.25158 18.8139789,168.682256 30.6843263,165.423896 Z" id="Path"></path>
    <path d="M0.591781765,232.306764 C5.35772053,239.696486 19.4871974,220.480869 42.9802123,174.659914 C72.099218,37.2475738 81.0653645,-19.0836924 69.8786519,5.66611573 C53.0985829,42.7908279 -6.55712639,221.222181 0.591781765,232.306764 Z" id="Path"></path>
    <path d="M117.072801,177.506635 C149.401412,236.571756 163.469938,253.76817 159.278378,229.095877 C152.991038,192.087437 93.678492,15.335935 75.6489063,2.30848976 C63.6291826,-6.37647374 77.4371475,52.0229079 117.072801,177.506635 Z" id="Path"></path>
  </g>
</svg>
