<?xml version="1.0" encoding="utf-8"?>
<svg version="1.1" xmlns="http://www.w3.org/2000/svg" viewBox="0 0 320 320">
  <g id="logo" fill="#466BB0">
    <rect id="background" fill="#FFFFFF" width="320" height="320" />
    <path d="M110.684326,204.423896 C128.489848,199.536357 210.7103,199.536357 219.309031,204.423896 C225.041518,207.682256 199.813498,215.25158 143.624971,227.131868 C109.794194,215.25158 98.8139789,207.682256 110.684326,204.423896 Z" id="Path"></path>
    <path d="M80.5917818,271.306764 C85.3577205,278.696486 99.4871974,259.480869 122.980212,213.659914 C152.099218,76.2475738 161.065364,19.9163076 149.878652,44.6661157 C133.098583,81.7908279 73.4428736,260.222181 80.5917818,271.306764 Z" id="Path"></path>
    <path d="M197.072801,216.506635 C229.401412,275.571756 243.469938,292.76817 239.278378,268.095877 C232.991038,231.087437 173.678492,54.335935 155.648906,41.3084898 C143.629183,32.6235263 157.437148,91.0229079 197.072801,216.506635 Z" id="Path"></path>
  </g>
</svg>
