<svg viewBox="0 0 300 300">
<circle cx="150" cy="150" r="146" stroke-width="2" />
<path d="M95.2582479,173.742409 C111.204928,169.385864 184.841821,169.385864 192.542871,173.742409 C197.676904,176.646773 175.082611,183.393748 124.759992,193.983333 C94.4610424,183.393748 84.6271278,176.646773 95.2582479,173.742409 Z" id="Path"></path>
<path d="M66.5317654,234.182219 C70.8143602,240.868155 83.5108773,223.482605 104.621317,182.025568 C130.78718,57.7001712 138.844013,6.73380962 128.791815,29.1264834 C113.713519,62.7154942 60.1078733,224.153315 66.5317654,234.182219 Z" id="Path"></path>
<path d="M171.847457,184.148503 C200.580259,237.881256 213.083988,253.525187 209.358642,231.080296 C203.770623,197.412959 151.055222,36.6184909 135.03101,24.7671567 C124.348202,16.8662672 136.620351,69.9933828 171.847457,184.148503 Z" id="Path"></path>
</svg>
