<svg class="hero-logo" version="1.1" xmlns="http://www.w3.org/2000/svg" viewBox="0 0 160 240">
  <path d="M32.5091643,165.613725 C50.2276978,160.795425 132.046468,160.795425 140.60319,165.613725 C146.307671,168.825924 121.202901,176.288016 65.2888796,188 C31.6233804,176.288016 20.6968087,168.825924 32.5091643,165.613725 Z" id="Path"></path>
  <path d="M0.590850477,232.459597 C5.34928908,239.854181 19.4565303,220.625922 42.9125742,174.774822 C71.9857553,37.2720788 80.9377918,-19.0962474 69.7686837,5.66984344 C53.0150216,42.8189797 -6.54680743,221.367722 0.590850477,232.459597 Z" id="Path"></path>
  <path d="M117.608285,177.122769 C149.533622,236.550698 163.426653,253.852741 159.28738,229.028898 C153.078469,191.793134 94.5058025,13.9559346 76.7011223,0.848468203 C64.8313355,-7.88984275 78.4670565,50.8682574 117.608285,177.122769 Z" id="Path"></path>
</svg>
